<svg xmlns="http://www.w3.org/2000/svg" width="100.073" height="35.607" viewBox="0 0 100.073 35.607">
  <g id="Component_231_20" data-name="Component 231 – 20" transform="translate(0)">
    <g id="Group_11701" data-name="Group 11701" transform="translate(0)" opacity="0.8">
      <g id="Group_11540" data-name="Group 11540" transform="translate(46.657 2.718)">
        <g id="Group_11537" data-name="Group 11537">
          <path id="Path_8302" data-name="Path 8302" d="M150.066,9.67V25.765a1.719,1.719,0,0,0,1.962,1.93h7.286l.117,1.99q-2.548.2-7.813.2-4.1,0-4.1-3.8V9.67Z" transform="translate(-147.52 -9.318)" fill="#005c8d"/>
          <path id="Path_8303" data-name="Path 8303" d="M200.945,23.54h-8.311l-1.99,6.321H187.98l6.5-19.488a.883.883,0,0,1,.965-.7h2.692a.883.883,0,0,1,.965.7l6.5,19.488h-2.663Zm-.7-2.222L197.7,13.3c-.175-.508-.343-1.054-.5-1.638h-.819l-.5,1.638-2.546,8.019Z" transform="translate(-175.136 -9.318)" fill="#005c8d"/>
          <path id="Path_8304" data-name="Path 8304" d="M254.995,29.86H252.42V9.67h2.575Z" transform="translate(-219.119 -9.318)" fill="#005c8d"/>
          <path id="Path_8305" data-name="Path 8305" d="M281.782,20.56,277.6,19.506a4.922,4.922,0,0,1-3.057-1.889,6.563,6.563,0,0,1-.921-3.73,8.934,8.934,0,0,1,.365-2.825,2.927,2.927,0,0,1,1.257-1.609,5.432,5.432,0,0,1,1.99-.717,19.412,19.412,0,0,1,2.94-.175,31.431,31.431,0,0,1,6,.584L286,11.017q-2.838-.148-5.7-.146c-.86,0-1.492.019-1.9.057a3.336,3.336,0,0,0-1.2.352,1.465,1.465,0,0,0-.775.921,6.27,6.27,0,0,0-.19,1.743,3.547,3.547,0,0,0,.571,2.282,3.731,3.731,0,0,0,1.975,1.025l4.1,1.025a5.108,5.108,0,0,1,3.162,1.9,6.721,6.721,0,0,1,.908,3.775q0,3.333-1.508,4.419t-5.251,1.083a35.057,35.057,0,0,1-6.263-.556l.175-1.9q4.914.176,6.174.146a5.9,5.9,0,0,0,3.235-.616q.833-.614.835-2.635a3.6,3.6,0,0,0-.571-2.327A3.793,3.793,0,0,0,281.782,20.56Z" transform="translate(-233.589 -8.56)" fill="#005c8d"/>
        </g>
        <g id="Group_11539" data-name="Group 11539" transform="translate(0.581 21.893)">
          <g id="Group_11538" data-name="Group 11538">
            <path id="Path_8306" data-name="Path 8306" d="M149.8,82.874V80.36h.384v2.47c0,.1.029.171.089.194a.488.488,0,0,0,.171.025h1.216v.371h-1.273c-.286,0-.463-.089-.54-.263A.693.693,0,0,1,149.8,82.874Z" transform="translate(-149.657 -79.522)" fill="#005c8d"/>
            <path id="Path_8307" data-name="Path 8307" d="M156.63,83.41l1.1-3.06h.406l1.054,3.06h-.438L158.5,82.6h-1.159l-.264.806Zm.832-1.171h.921l-.451-1.336Z" transform="translate(-154.319 -79.515)" fill="#005c8d"/>
            <path id="Path_8308" data-name="Path 8308" d="M167.167,80.35a.981.981,0,0,1,.387.07.59.59,0,0,1,.254.194.872.872,0,0,1,.175.54c0,.375-.133.6-.4.67a.5.5,0,0,1,.3.222.891.891,0,0,1,.124.5.981.981,0,0,1-.175.606.774.774,0,0,1-.66.26h-1.2V80.35Zm-.813,1.279h.8a.43.43,0,0,0,.327-.117.479.479,0,0,0,.114-.346.389.389,0,0,0-.286-.432.782.782,0,0,0-.156-.016h-.8Zm0,1.413h.806c.308,0,.46-.171.46-.511a.63.63,0,0,0-.114-.387.405.405,0,0,0-.346-.156h-.806Z" transform="translate(-160.694 -79.515)" fill="#005c8d"/>
            <path id="Path_8309" data-name="Path 8309" d="M173.65,81.791a3.173,3.173,0,0,1,.06-.651,1.61,1.61,0,0,1,.156-.46.654.654,0,0,1,.26-.257,1,1,0,0,1,.324-.117,2.437,2.437,0,0,1,.365-.025,3.1,3.1,0,0,1,.33.013,1.5,1.5,0,0,1,.254.051.688.688,0,0,1,.222.1.817.817,0,0,1,.175.184,1,1,0,0,1,.137.279,3.337,3.337,0,0,1,.108.94,2.494,2.494,0,0,1-.146.994.974.974,0,0,1-.165.273.622.622,0,0,1-.241.162,1.8,1.8,0,0,1-.638.1,1.4,1.4,0,0,1-.79-.162.828.828,0,0,1-.3-.451A3.521,3.521,0,0,1,173.65,81.791Zm.416-.514q-.019.114-.029.257c0,.1-.006.21-.006.343s0,.251.013.359a2.874,2.874,0,0,0,.038.286.705.705,0,0,0,.073.21.544.544,0,0,0,.108.14.362.362,0,0,0,.149.086,1.237,1.237,0,0,0,.378.051,2.744,2.744,0,0,0,.327-.016.651.651,0,0,0,.206-.063.436.436,0,0,0,.156-.127.806.806,0,0,0,.1-.21,2.574,2.574,0,0,0,.076-.736,3.308,3.308,0,0,0-.029-.527c-.019-.1-.032-.187-.044-.244a.543.543,0,0,0-.057-.152c-.025-.044-.048-.079-.07-.111a.243.243,0,0,0-.092-.076.559.559,0,0,0-.1-.048.636.636,0,0,0-.124-.025,2.1,2.1,0,0,0-.251-.013c-.089,0-.152,0-.19,0s-.083.006-.136.01a.463.463,0,0,0-.124.025.83.83,0,0,0-.1.044.243.243,0,0,0-.092.076c-.022.032-.048.067-.073.111a.546.546,0,0,0-.06.152C174.094,81.134,174.082,81.2,174.066,81.277Z" transform="translate(-165.936 -79.467)" fill="#005c8d"/>
            <path id="Path_8310" data-name="Path 8310" d="M183.784,80.343c.492,0,.74.308.74.927a1.35,1.35,0,0,1-.048.425,1.949,1.949,0,0,1-.083.194.376.376,0,0,1-.083.111c-.032.029-.06.054-.083.07a.294.294,0,0,1-.089.048q-.071.024-.133.038l.625,1.244h-.422l-.606-1.225-.749-.057V83.4h-.384V80.34h1.314Zm-.927,1.451h.911c.152,0,.251-.041.3-.121a.731.731,0,0,0,.07-.352,1.509,1.509,0,0,0-.029-.34.324.324,0,0,0-.34-.267h-.911v1.079Z" transform="translate(-171.956 -79.508)" fill="#005c8d"/>
            <path id="Path_8311" data-name="Path 8311" d="M190.11,83.41l1.1-3.06h.406l1.054,3.06h-.438l-.251-.806h-1.159l-.264.806Zm.832-1.171h.921l-.451-1.336Z" transform="translate(-177.17 -79.515)" fill="#005c8d"/>
            <path id="Path_8312" data-name="Path 8312" d="M197.75,80.731V80.36h2.162v.371h-.9v2.686h-.384V80.731Z" transform="translate(-182.385 -79.522)" fill="#005c8d"/>
            <path id="Path_8313" data-name="Path 8313" d="M205.41,80.1a3.887,3.887,0,0,1,.032-.533,2.436,2.436,0,0,1,.083-.4.9.9,0,0,1,.137-.283.768.768,0,0,1,.181-.184.706.706,0,0,1,.225-.1,1.669,1.669,0,0,1,.463-.063,3.664,3.664,0,0,1,.375.013,1.5,1.5,0,0,1,.254.051.688.688,0,0,1,.222.1.817.817,0,0,1,.175.184,1,1,0,0,1,.136.279,3.336,3.336,0,0,1,.108.94,2.493,2.493,0,0,1-.146.994.975.975,0,0,1-.165.273.622.622,0,0,1-.241.162,1.8,1.8,0,0,1-.638.1,1.4,1.4,0,0,1-.79-.162.828.828,0,0,1-.3-.451A3.289,3.289,0,0,1,205.41,80.1Zm.514-.927a1.62,1.62,0,0,0-.092.352,3,3,0,0,0-.038.489c0,.171,0,.3.01.394s.013.171.022.248a1.018,1.018,0,0,0,.041.2,1.124,1.124,0,0,0,.06.149.36.36,0,0,0,.083.108.588.588,0,0,0,.108.073.493.493,0,0,0,.137.044,2.113,2.113,0,0,0,.673,0,.68.68,0,0,0,.225-.1.447.447,0,0,0,.156-.2,2.308,2.308,0,0,0,.108-.829,3.308,3.308,0,0,0-.029-.527c-.019-.1-.032-.187-.044-.244a.543.543,0,0,0-.057-.152c-.025-.044-.048-.079-.07-.111a.243.243,0,0,0-.092-.076.561.561,0,0,0-.1-.048.637.637,0,0,0-.124-.025,2.636,2.636,0,0,0-.3-.013,2.159,2.159,0,0,0-.283.013A.667.667,0,0,0,206.1,79,.359.359,0,0,0,205.924,79.177Zm.527-.892.432-.565h.425l-.543.565Z" transform="translate(-187.613 -77.72)" fill="#005c8d"/>
            <path id="Path_8314" data-name="Path 8314" d="M215.544,80.343c.492,0,.74.308.74.927a1.351,1.351,0,0,1-.048.425,1.948,1.948,0,0,1-.083.194.376.376,0,0,1-.083.111c-.032.029-.06.054-.083.07a.294.294,0,0,1-.089.048q-.071.024-.133.038l.625,1.244h-.422l-.606-1.225-.749-.057V83.4h-.384V80.34h1.314Zm-.927,1.451h.911c.152,0,.251-.041.3-.121a.731.731,0,0,0,.07-.352,1.51,1.51,0,0,0-.029-.34.324.324,0,0,0-.34-.267h-.911v1.079Z" transform="translate(-193.633 -79.508)" fill="#005c8d"/>
            <path id="Path_8315" data-name="Path 8315" d="M222.31,83.41V80.35h.384v3.06Z" transform="translate(-199.148 -79.515)" fill="#005c8d"/>
            <path id="Path_8316" data-name="Path 8316" d="M225.05,81.791a3.174,3.174,0,0,1,.06-.651,1.611,1.611,0,0,1,.156-.46.654.654,0,0,1,.26-.257,1,1,0,0,1,.324-.117,2.437,2.437,0,0,1,.365-.025,3.1,3.1,0,0,1,.33.013,1.5,1.5,0,0,1,.254.051.688.688,0,0,1,.222.1.816.816,0,0,1,.175.184,1,1,0,0,1,.137.279,3.337,3.337,0,0,1,.108.94,2.493,2.493,0,0,1-.146.994.973.973,0,0,1-.165.273.622.622,0,0,1-.241.162,1.8,1.8,0,0,1-.638.1,1.4,1.4,0,0,1-.79-.162.828.828,0,0,1-.3-.451A3.521,3.521,0,0,1,225.05,81.791Zm.416-.514q-.019.114-.029.257c0,.1-.006.21-.006.343s0,.251.013.359a2.856,2.856,0,0,0,.038.286.7.7,0,0,0,.073.21.545.545,0,0,0,.108.14.362.362,0,0,0,.149.086,1.237,1.237,0,0,0,.378.051,2.743,2.743,0,0,0,.327-.016.651.651,0,0,0,.206-.063.436.436,0,0,0,.156-.127.806.806,0,0,0,.1-.21,2.574,2.574,0,0,0,.076-.736,3.306,3.306,0,0,0-.029-.527c-.019-.1-.032-.187-.044-.244a.542.542,0,0,0-.057-.152c-.025-.044-.048-.079-.07-.111a.243.243,0,0,0-.092-.076.559.559,0,0,0-.1-.048.636.636,0,0,0-.124-.025,2.1,2.1,0,0,0-.251-.013c-.089,0-.152,0-.19,0s-.083.006-.137.01a.463.463,0,0,0-.124.025.827.827,0,0,0-.1.044.242.242,0,0,0-.092.076c-.022.032-.048.067-.073.111a.545.545,0,0,0-.06.152C225.494,81.134,225.482,81.2,225.466,81.277Z" transform="translate(-201.019 -79.467)" fill="#005c8d"/>
            <path id="Path_8317" data-name="Path 8317" d="M237.39,83.41V80.35h1.178a1.055,1.055,0,0,1,.47.1.867.867,0,0,1,.314.251,1.27,1.27,0,0,1,.184.365,2.61,2.61,0,0,1,.117.829,1.811,1.811,0,0,1-.359,1.2.84.84,0,0,1-.308.232.984.984,0,0,1-.416.086H237.39Zm.387-.375h.781a.565.565,0,0,0,.41-.159,1.283,1.283,0,0,0,.3-.952,1.759,1.759,0,0,0-.181-.933.6.6,0,0,0-.53-.27h-.781Z" transform="translate(-209.441 -79.515)" fill="#005c8d"/>
            <path id="Path_8318" data-name="Path 8318" d="M246.32,80.35l.648.029c.422.019.66.032.711.038v.308h-1.292c-.1,0-.168.025-.19.076a.425.425,0,0,0-.025.159V81.7l1.333.044v.308l-1.333.041v.736c0,.1.032.171.089.194a.514.514,0,0,0,.171.025h1.251v.3l-1.286.07h-.067a.483.483,0,0,1-.54-.552V80.915a.536.536,0,0,1,.156-.438A.581.581,0,0,1,246.32,80.35Z" transform="translate(-215.174 -79.515)" fill="#005c8d"/>
            <path id="Path_8319" data-name="Path 8319" d="M256.55,83.41V80.35h.384v3.06Z" transform="translate(-222.519 -79.515)" fill="#005c8d"/>
            <path id="Path_8320" data-name="Path 8320" d="M259.47,83.41V80.35h.394l1.517,2.346V80.35h.384v3.06h-.384l-1.521-2.34v2.34Z" transform="translate(-224.512 -79.515)" fill="#005c8d"/>
            <path id="Path_8321" data-name="Path 8321" d="M268.22,81.791a3.174,3.174,0,0,1,.06-.651,1.61,1.61,0,0,1,.156-.46.654.654,0,0,1,.26-.257,1,1,0,0,1,.324-.117,2.437,2.437,0,0,1,.365-.025,3.1,3.1,0,0,1,.33.013,1.5,1.5,0,0,1,.254.051.687.687,0,0,1,.222.1.816.816,0,0,1,.175.184.994.994,0,0,1,.137.279,3.336,3.336,0,0,1,.108.94,2.493,2.493,0,0,1-.146.994.974.974,0,0,1-.165.273.622.622,0,0,1-.241.162,1.8,1.8,0,0,1-.638.1,1.4,1.4,0,0,1-.79-.162.828.828,0,0,1-.3-.451A3.521,3.521,0,0,1,268.22,81.791Zm.419-.514q-.019.114-.029.257c0,.1-.006.21-.006.343s0,.251.013.359a2.843,2.843,0,0,0,.038.286.7.7,0,0,0,.073.21.544.544,0,0,0,.108.14.362.362,0,0,0,.149.086,1.237,1.237,0,0,0,.378.051,2.742,2.742,0,0,0,.327-.016.65.65,0,0,0,.206-.063.436.436,0,0,0,.156-.127.806.806,0,0,0,.1-.21,2.573,2.573,0,0,0,.076-.736,3.307,3.307,0,0,0-.029-.527c-.019-.1-.032-.187-.044-.244a.543.543,0,0,0-.057-.152c-.025-.044-.048-.079-.07-.111a.243.243,0,0,0-.092-.076.559.559,0,0,0-.1-.048.636.636,0,0,0-.124-.025,2.1,2.1,0,0,0-.251-.013c-.089,0-.152,0-.19,0s-.083.006-.137.01a.463.463,0,0,0-.124.025.827.827,0,0,0-.1.044.243.243,0,0,0-.092.076c-.022.032-.048.067-.073.111a.546.546,0,0,0-.06.152A1.223,1.223,0,0,0,268.639,81.277Z" transform="translate(-230.484 -79.467)" fill="#005c8d"/>
            <path id="Path_8322" data-name="Path 8322" d="M276.38,80.35h.413l.841,2.492.876-2.492h.413l-1.092,3.06h-.41Z" transform="translate(-236.054 -79.515)" fill="#005c8d"/>
            <path id="Path_8323" data-name="Path 8323" d="M283.67,83.41l1.1-3.06h.406l1.054,3.06h-.438l-.251-.806h-1.159l-.263.806Zm.832-1.171h.921l-.451-1.336Z" transform="translate(-241.029 -79.515)" fill="#005c8d"/>
            <path id="Path_8324" data-name="Path 8324" d="M292.16,81.831a5.609,5.609,0,0,1,.025-.565,2.226,2.226,0,0,1,.1-.429.929.929,0,0,1,.181-.324.95.95,0,0,1,.724-.263,4.823,4.823,0,0,1,1.032.114v.3c-.032,0-.057,0-.083-.006s-.054,0-.089-.006-.073-.006-.114-.006-.086,0-.13-.006l-.143-.01-.149-.01c-.1,0-.21,0-.314,0a.851.851,0,0,0-.283.044.437.437,0,0,0-.206.178.913.913,0,0,0-.121.365,3.448,3.448,0,0,0-.035.492q0,.262.01.39a2.215,2.215,0,0,0,.035.254,1.74,1.74,0,0,0,.057.222.739.739,0,0,0,.089.181.642.642,0,0,0,.124.137.561.561,0,0,0,.356.114c.267,0,.552-.006.857-.022l.149-.01v.3a4.156,4.156,0,0,1-.5.073c-.2.019-.333.029-.406.029h-.121a.844.844,0,0,1-.806-.438A2.283,2.283,0,0,1,292.16,81.831Zm.924,1.66h.308a.809.809,0,0,1-.092.451.4.4,0,0,1-.343.124h-.216v-.181l.21-.063a.184.184,0,0,0,.108-.114A.757.757,0,0,0,293.084,83.491Z" transform="translate(-246.824 -79.447)" fill="#005c8d"/>
            <path id="Path_8325" data-name="Path 8325" d="M299.63,81.82l1.1-3.06h.406l1.054,3.06h-.438l-.251-.806h-1.159l-.263.806Zm1.543-3.644a.887.887,0,0,0,.375-.156l.092.2-.063.057c-.038.032-.064.054-.076.063l-.073.054a.382.382,0,0,1-.089.051.469.469,0,0,1-.422-.032.482.482,0,0,0-.2-.067.5.5,0,0,0-.241.063c-.073.041-.127.07-.156.083l-.092-.187a1.259,1.259,0,0,1,.368-.251.453.453,0,0,1,.343.032,1.166,1.166,0,0,0,.206.089A.123.123,0,0,0,301.173,78.176Zm-.711,2.473h.921l-.451-1.336Z" transform="translate(-251.923 -77.925)" fill="#005c8d"/>
            <path id="Path_8326" data-name="Path 8326" d="M308.25,81.791a3.172,3.172,0,0,1,.06-.651,1.611,1.611,0,0,1,.156-.46.654.654,0,0,1,.26-.257,1,1,0,0,1,.324-.117,2.436,2.436,0,0,1,.365-.025,3.1,3.1,0,0,1,.33.013,1.5,1.5,0,0,1,.254.051.687.687,0,0,1,.222.1.815.815,0,0,1,.175.184,1,1,0,0,1,.137.279,3.337,3.337,0,0,1,.108.94,2.493,2.493,0,0,1-.146.994.972.972,0,0,1-.165.273.622.622,0,0,1-.241.162,1.8,1.8,0,0,1-.638.1,1.4,1.4,0,0,1-.79-.162.829.829,0,0,1-.3-.451A3.522,3.522,0,0,1,308.25,81.791Zm.419-.514q-.019.114-.029.257c0,.1-.006.21-.006.343s0,.251.013.359a2.861,2.861,0,0,0,.038.286.7.7,0,0,0,.073.21.545.545,0,0,0,.108.14.362.362,0,0,0,.149.086,1.237,1.237,0,0,0,.378.051,2.743,2.743,0,0,0,.327-.016.651.651,0,0,0,.206-.063.435.435,0,0,0,.156-.127.806.806,0,0,0,.1-.21,2.573,2.573,0,0,0,.076-.736,3.308,3.308,0,0,0-.029-.527c-.019-.1-.032-.187-.044-.244a.543.543,0,0,0-.057-.152c-.025-.044-.048-.079-.07-.111a.243.243,0,0,0-.092-.076.558.558,0,0,0-.1-.048.636.636,0,0,0-.124-.025,2.1,2.1,0,0,0-.251-.013c-.089,0-.152,0-.19,0s-.083.006-.137.01a.463.463,0,0,0-.124.025.829.829,0,0,0-.1.044.243.243,0,0,0-.092.076c-.022.032-.048.067-.073.111a.546.546,0,0,0-.06.152A1.227,1.227,0,0,0,308.669,81.277Z" transform="translate(-257.806 -79.467)" fill="#005c8d"/>
            <path id="Path_8327" data-name="Path 8327" d="M149.35,94.431V94.06h2.162v.371h-.9v2.686h-.384V94.431Z" transform="translate(-149.35 -88.873)" fill="#005c8d"/>
            <path id="Path_8328" data-name="Path 8328" d="M157.73,94.06l.648.029c.422.019.66.032.711.038v.308H157.8c-.1,0-.168.025-.19.076a.424.424,0,0,0-.025.159v.736l1.333.044v.308l-1.333.041v.736c0,.1.032.171.089.194a.514.514,0,0,0,.171.025h1.251v.3l-1.286.07h-.067a.483.483,0,0,1-.54-.552V94.625a.536.536,0,0,1,.156-.438A.553.553,0,0,1,157.73,94.06Z" transform="translate(-154.708 -88.873)" fill="#005c8d"/>
            <path id="Path_8329" data-name="Path 8329" d="M164.34,95.531a5.619,5.619,0,0,1,.025-.565,1.969,1.969,0,0,1,.1-.429.929.929,0,0,1,.181-.324.95.95,0,0,1,.724-.263,4.652,4.652,0,0,1,.508.032c.2.022.375.048.524.079v.3c-.032,0-.057,0-.083-.006s-.054,0-.089-.006-.073-.006-.114-.006-.086,0-.13-.006l-.143-.01-.149-.01c-.1,0-.21,0-.314,0a.851.851,0,0,0-.283.044.437.437,0,0,0-.206.178.913.913,0,0,0-.121.365,3.452,3.452,0,0,0-.035.492q0,.262.01.39a2.222,2.222,0,0,0,.035.254,1.738,1.738,0,0,0,.057.222.738.738,0,0,0,.089.181.641.641,0,0,0,.124.136.561.561,0,0,0,.356.114c.267,0,.552-.006.857-.022l.149-.01v.3a4.983,4.983,0,0,1-.5.07c-.2.019-.333.029-.406.029h-.121a.844.844,0,0,1-.806-.438A2.217,2.217,0,0,1,164.34,95.531Z" transform="translate(-159.581 -88.798)" fill="#005c8d"/>
            <path id="Path_8330" data-name="Path 8330" d="M172.24,97.11V94.05h.394l1.517,2.346V94.05h.384v3.06h-.384l-1.521-2.34v2.34Z" transform="translate(-164.973 -88.866)" fill="#005c8d"/>
            <path id="Path_8331" data-name="Path 8331" d="M180.99,95.491a3.174,3.174,0,0,1,.06-.651,1.611,1.611,0,0,1,.156-.46.654.654,0,0,1,.26-.257,1,1,0,0,1,.324-.117,2.436,2.436,0,0,1,.365-.025,3.1,3.1,0,0,1,.33.013,1.5,1.5,0,0,1,.254.051.687.687,0,0,1,.222.1.816.816,0,0,1,.175.184,1,1,0,0,1,.137.279,3.335,3.335,0,0,1,.108.94,2.494,2.494,0,0,1-.146.994.973.973,0,0,1-.165.273.622.622,0,0,1-.241.162,1.8,1.8,0,0,1-.638.1,1.4,1.4,0,0,1-.79-.162.828.828,0,0,1-.3-.451A3.521,3.521,0,0,1,180.99,95.491Zm.419-.514q-.019.114-.029.257c0,.1-.006.21-.006.343s0,.251.013.359a2.861,2.861,0,0,0,.038.286.705.705,0,0,0,.073.21.545.545,0,0,0,.108.14.362.362,0,0,0,.149.086,1.237,1.237,0,0,0,.378.051,2.741,2.741,0,0,0,.327-.016.651.651,0,0,0,.206-.063.436.436,0,0,0,.156-.127.8.8,0,0,0,.1-.21,2.574,2.574,0,0,0,.076-.736,3.306,3.306,0,0,0-.029-.527c-.019-.1-.032-.187-.044-.244a.542.542,0,0,0-.057-.152c-.025-.044-.048-.079-.07-.111a.243.243,0,0,0-.092-.076.558.558,0,0,0-.1-.048.637.637,0,0,0-.124-.025,2.1,2.1,0,0,0-.251-.013c-.089,0-.152,0-.19,0s-.083.006-.137.01a.464.464,0,0,0-.124.025.831.831,0,0,0-.1.044.243.243,0,0,0-.092.076c-.022.032-.048.067-.073.111a.545.545,0,0,0-.06.152C181.438,94.837,181.422,94.9,181.409,94.977Z" transform="translate(-170.946 -88.818)" fill="#005c8d"/>
            <path id="Path_8332" data-name="Path 8332" d="M190.05,96.574V94.06h.384v2.47c0,.1.029.171.089.194a.488.488,0,0,0,.171.025h1.216v.371h-1.273c-.286,0-.463-.089-.54-.263A.74.74,0,0,1,190.05,96.574Z" transform="translate(-177.13 -88.873)" fill="#005c8d"/>
            <path id="Path_8333" data-name="Path 8333" d="M196.73,93.8a3.89,3.89,0,0,1,.032-.533,2.439,2.439,0,0,1,.083-.4,1.016,1.016,0,0,1,.137-.283.768.768,0,0,1,.181-.184.706.706,0,0,1,.225-.1,1.668,1.668,0,0,1,.464-.063,3.663,3.663,0,0,1,.375.013,1.5,1.5,0,0,1,.254.051.688.688,0,0,1,.222.1.817.817,0,0,1,.175.184,1,1,0,0,1,.137.279,3.336,3.336,0,0,1,.108.94,2.493,2.493,0,0,1-.146.994.974.974,0,0,1-.165.273.622.622,0,0,1-.241.162,1.8,1.8,0,0,1-.638.1,1.4,1.4,0,0,1-.79-.162.828.828,0,0,1-.3-.451A3.289,3.289,0,0,1,196.73,93.8Zm.514-.927a1.622,1.622,0,0,0-.092.352,2.993,2.993,0,0,0-.038.489c0,.171,0,.3.01.394s.013.171.022.248a1.019,1.019,0,0,0,.041.2,1.117,1.117,0,0,0,.06.149.36.36,0,0,0,.083.108.588.588,0,0,0,.108.073.493.493,0,0,0,.136.044,1.787,1.787,0,0,0,.346.029,1.769,1.769,0,0,0,.327-.025.68.68,0,0,0,.225-.1.447.447,0,0,0,.156-.2,2.309,2.309,0,0,0,.108-.829,3.308,3.308,0,0,0-.029-.527c-.019-.1-.032-.187-.044-.244a.543.543,0,0,0-.057-.152c-.025-.044-.048-.079-.07-.111a.243.243,0,0,0-.092-.076.558.558,0,0,0-.1-.048.635.635,0,0,0-.124-.025,2.639,2.639,0,0,0-.3-.013,2.161,2.161,0,0,0-.283.013.667.667,0,0,0-.216.073A.372.372,0,0,0,197.244,92.877Zm.527-.892.432-.565h.425l-.543.565Z" transform="translate(-181.689 -87.071)" fill="#005c8d"/>
            <path id="Path_8334" data-name="Path 8334" d="M206.975,96.839a1.448,1.448,0,0,1-.794.225.844.844,0,0,1-.7-.289,1.483,1.483,0,0,1-.251-.775c-.013-.143-.022-.308-.022-.5a4.6,4.6,0,0,1,.022-.5,2.338,2.338,0,0,1,.086-.419.976.976,0,0,1,.171-.34.844.844,0,0,1,.7-.3,5.076,5.076,0,0,1,.53.032c.21.022.4.051.559.083v.3l-.076-.006-.184-.016c-.076-.006-.156-.01-.241-.016-.21-.013-.381-.022-.511-.022a.791.791,0,0,0-.308.048.467.467,0,0,0-.184.136.594.594,0,0,0-.111.238,3.389,3.389,0,0,0-.076.854,1.894,1.894,0,0,0,.136.844.539.539,0,0,0,.514.26,1.4,1.4,0,0,0,.314-.044,2.261,2.261,0,0,0,.292-.1l.114-.051v-.756h-.625V95.49a2.365,2.365,0,0,1,.727-.1c.089,0,.184,0,.286.013v1.648h-.286Z" transform="translate(-187.477 -88.798)" fill="#005c8d"/>
            <path id="Path_8335" data-name="Path 8335" d="M213.61,97.11V94.05h.384v3.06Z" transform="translate(-193.21 -88.866)" fill="#005c8d"/>
            <path id="Path_8336" data-name="Path 8336" d="M216.22,95.531a5.615,5.615,0,0,1,.025-.565,1.968,1.968,0,0,1,.1-.429.928.928,0,0,1,.181-.324.95.95,0,0,1,.724-.263,4.652,4.652,0,0,1,.508.032c.2.022.375.048.524.079v.3c-.032,0-.057,0-.083-.006s-.054,0-.089-.006-.073-.006-.114-.006-.086,0-.13-.006l-.143-.01-.149-.01c-.1,0-.21,0-.314,0a.851.851,0,0,0-.283.044.437.437,0,0,0-.206.178.912.912,0,0,0-.121.365,3.452,3.452,0,0,0-.035.492q0,.262.01.39a2.222,2.222,0,0,0,.035.254,1.74,1.74,0,0,0,.057.222.737.737,0,0,0,.089.181.641.641,0,0,0,.124.136.561.561,0,0,0,.356.114c.267,0,.552-.006.857-.022l.149-.01v.3a4.983,4.983,0,0,1-.5.07c-.2.019-.333.029-.406.029h-.121a.844.844,0,0,1-.806-.438A2.217,2.217,0,0,1,216.22,95.531Z" transform="translate(-194.992 -88.798)" fill="#005c8d"/>
            <path id="Path_8337" data-name="Path 8337" d="M223.68,97.11l1.1-3.06h.406l1.054,3.06H225.8l-.251-.806h-1.159l-.263.806Zm.832-1.168h.921l-.451-1.336Z" transform="translate(-200.083 -88.866)" fill="#005c8d"/>
            <path id="Path_8338" data-name="Path 8338" d="M236.83,94.06l.648.029c.422.019.66.032.711.038v.308H236.9c-.1,0-.168.025-.19.076a.424.424,0,0,0-.025.159v.736l1.333.044v.308l-1.333.041v.736c0,.1.032.171.089.194a.514.514,0,0,0,.171.025h1.251v.3l-1.286.07h-.067a.483.483,0,0,1-.54-.552V94.625a.537.537,0,0,1,.156-.438A.564.564,0,0,1,236.83,94.06Z" transform="translate(-208.697 -88.873)" fill="#005c8d"/>
            <path id="Path_8339" data-name="Path 8339" d="M243.45,97.11l.222-3.06h.53l.73,2.419.714-2.419h.527l.251,3.06h-.384l-.194-2.375-.7,2.375h-.41l-.727-2.375-.171,2.375Z" transform="translate(-213.577 -88.866)" fill="#005c8d"/>
            <path id="Path_8340" data-name="Path 8340" d="M258.089,94.015a1.1,1.1,0,0,1,.241-.035h.2c.07,0,.219.013.457.038s.41.048.517.067v.308c-.117-.01-.308-.016-.578-.025-.3-.01-.473-.016-.527-.016s-.1,0-.143.006a.361.361,0,0,0-.137.044c-.092.048-.136.162-.136.346v.241c0,.159.032.26.1.308a.544.544,0,0,0,.308.07h.559c.448,0,.673.248.673.743v.263a.625.625,0,0,1-.371.648,1.15,1.15,0,0,1-.438.076c-.165,0-.365-.013-.6-.035a4.807,4.807,0,0,1-.524-.073v-.308a7.726,7.726,0,0,0,.79.044c.219,0,.346,0,.381,0a.736.736,0,0,0,.124-.022.424.424,0,0,0,.127-.051.311.311,0,0,0,.121-.267v-.251a.472.472,0,0,0-.07-.279.292.292,0,0,0-.254-.1h-.552c-.362,0-.594-.114-.689-.343a1.054,1.054,0,0,1-.067-.4v-.273a.692.692,0,0,1,.238-.606A.654.654,0,0,1,258.089,94.015Z" transform="translate(-223.235 -88.818)" fill="#005c8d"/>
            <path id="Path_8341" data-name="Path 8341" d="M264.63,97.11l1.1-3.06h.406l1.054,3.06h-.438L266.5,96.3h-1.159l-.263.806Zm.832-1.168h.921l-.451-1.336Z" transform="translate(-228.034 -88.866)" fill="#005c8d"/>
            <path id="Path_8342" data-name="Path 8342" d="M274.583,95.337h-.057a1.325,1.325,0,0,1-.651-.1,1.092,1.092,0,0,1-.171-.149.639.639,0,0,1-.146-.241,2.736,2.736,0,0,1-.117-.867V92.255h.384v1.721a2.7,2.7,0,0,0,.025.438c.019.086.035.152.044.2a.37.37,0,0,0,.057.124c.025.035.048.063.07.089a.278.278,0,0,0,.089.064c.038.016.07.029.1.038a.661.661,0,0,0,.114.022c.073.006.152.01.235.01s.149,0,.2,0a1.087,1.087,0,0,0,.152-.025.42.42,0,0,0,.136-.06.609.609,0,0,0,.111-.111.492.492,0,0,0,.089-.178,2,2,0,0,0,.076-.606V92.258h.387v1.721a1.54,1.54,0,0,1-.289,1.1.965.965,0,0,1-.181.149.631.631,0,0,1-.216.076A2.4,2.4,0,0,1,274.583,95.337Zm-.168-3.352.425-.565h.432l-.543.565Z" transform="translate(-234.047 -87.071)" fill="#005c8d"/>
            <path id="Path_8343" data-name="Path 8343" d="M282.29,97.11V94.05h1.178a1.055,1.055,0,0,1,.47.1.866.866,0,0,1,.314.251,1.27,1.27,0,0,1,.184.365,2.608,2.608,0,0,1,.117.829,1.811,1.811,0,0,1-.359,1.2.84.84,0,0,1-.308.232.984.984,0,0,1-.416.086H282.29Zm.384-.375h.781a.565.565,0,0,0,.409-.159,1.283,1.283,0,0,0,.3-.952,1.759,1.759,0,0,0-.181-.933.6.6,0,0,0-.53-.27h-.781Z" transform="translate(-240.087 -88.866)" fill="#005c8d"/>
            <path id="Path_8344" data-name="Path 8344" d="M291.22,94.06l.648.029c.422.019.66.032.711.038v.308h-1.292c-.1,0-.168.025-.19.076a.424.424,0,0,0-.025.159v.736l1.333.044v.308l-1.333.041v.736c0,.1.032.171.089.194a.514.514,0,0,0,.171.025h1.251v.3l-1.286.07h-.067a.483.483,0,0,1-.54-.552V94.625a.537.537,0,0,1,.156-.438A.564.564,0,0,1,291.22,94.06Z" transform="translate(-245.821 -88.873)" fill="#005c8d"/>
          </g>
        </g>
      </g>
      <g id="Group_11541" data-name="Group 11541">
        <path id="Path_8345" data-name="Path 8345" d="M20.33,75.335A15.869,15.869,0,0,1,4.543,61.04H0v1.483H2.93a17.281,17.281,0,0,0,17.4,14.809A17.82,17.82,0,0,0,37.787,62.523h3V61.04H36.149A15.719,15.719,0,0,1,20.33,75.335Z" transform="translate(0 -41.724)" fill="#005c8d"/>
        <path id="Path_8346" data-name="Path 8346" d="M32.6,10.57a14.533,14.533,0,0,0-14.625,14.5c0,.057,0,.044,0,.044H28.021a.887.887,0,0,1,.733.594l.4,1.044.921-5.641a.774.774,0,0,1,.74-.648.787.787,0,0,1,.8.594l2.308,8.755,2.356-13.047a.788.788,0,0,1,1.536-.063l3.025,11.212,1.254-2.425a.735.735,0,0,1,.7-.371h4.416A14.581,14.581,0,0,0,32.6,10.57Z" transform="translate(-12.265 -7.215)" fill="#005c8d"/>
        <path id="Path_8347" data-name="Path 8347" d="M40.777,52.223a.791.791,0,0,1-.683-.578L37.447,41.83,35.085,54.811a.678.678,0,0,1-.743.533H34.31a.7.7,0,0,1-.762-.473l-2.27-8.549-.784,4.841a.8.8,0,0,1-.692.67.917.917,0,0,1-.819-.629l-1.254-3.276H18.32A14.638,14.638,0,0,0,32.837,60.963,14.489,14.489,0,0,0,47.389,47.928H43.523l-1.965,3.879A.778.778,0,0,1,40.777,52.223Z" transform="translate(-12.504 -28.613)" fill="#005c8d"/>
        <path id="Path_8348" data-name="Path 8348" d="M37.93,16.412A17.949,17.949,0,0,0,20.33,0,17.781,17.781,0,0,0,2.708,16.412H0v1.483H4.451a.472.472,0,0,1,0-.073,15.883,15.883,0,0,1,31.765.073H40.78V16.412Z" transform="translate(0 0)" fill="#005c8d"/>
      </g>
    </g>
  </g>
</svg>
