<svg id="Component_229_20" data-name="Component 229 – 20" xmlns="http://www.w3.org/2000/svg" width="75.356" height="39.197" viewBox="0 0 75.356 39.197">
  <g id="Group_11699" data-name="Group 11699" transform="translate(0 0)" opacity="0.8">
    <path id="path562" d="M343.262,472.1l-2.456-.719a3.87,3.87,0,0,1,1.231-7.545h4.823v1.71h-3.384a1.211,1.211,0,0,0-1.225,1.227,1.129,1.129,0,0,0,.794,1.077l2.372.794a3.938,3.938,0,0,1,2.528,4.031A4.343,4.343,0,0,1,343.612,477H338.5V475.05H342.9a1.5,1.5,0,0,0,1.372-1.5,1.475,1.475,0,0,0-1.006-1.445m-22.482,0-2.449-.719a3.906,3.906,0,0,1-2.588-3.671,3.859,3.859,0,0,1,3.892-3.874h4.827v1.71h-3.389a1.21,1.21,0,0,0-1.22,1.227,1.134,1.134,0,0,0,.788,1.077l2.378.794a3.968,3.968,0,0,1,2.447,4.031A4.271,4.271,0,0,1,321.217,477h-5.11V475.05H320.5a1.5,1.5,0,0,0,1.368-1.5,1.542,1.542,0,0,0-1.088-1.445m11.166,5.332c-2.95,0-5.253-2.091-5.253-4.686v-8.838h3.96v9.2a2.184,2.184,0,0,0,2.3,2.085,2.238,2.238,0,0,0,2.31-2.085v-9.2h1.869v8.838a4.939,4.939,0,0,1-5.187,4.686" transform="translate(-315.743 -450.389)" fill="#424242"/>
    <path id="path564" d="M986.889,250.222a94.36,94.36,0,0,1-12.637-.06,58.887,58.887,0,0,0,1.11,11.462h12.693c-.6-3.713-1.083-9.708-1.165-11.4M965.36,235.555c.847.071,8.327.726,8.83.726l11.843,12.044h15.223v-12.77Zm9.913-.743h12.783V222.428H975.273Zm-.082,3.561h0l-1.661-1.692a108.675,108.675,0,0,1-11.636-1.125v12.77c11.444,1.13,17.451,1.414,24.156,1.2h.108Zm11.64,10.605h1.553V258.9a81.56,81.56,0,0,1-.7-9.008c-.2-.2-.854-.918-.854-.918" transform="translate(-925.9 -222.428)" fill="#424242"/>
  </g>
  <g id="Group_11544" data-name="Group 11544" transform="translate(0 0)">
    <path id="path562-2" data-name="path562" d="M343.262,472.1l-2.456-.719a3.87,3.87,0,0,1,1.231-7.545h4.823v1.71h-3.384a1.211,1.211,0,0,0-1.225,1.227,1.129,1.129,0,0,0,.794,1.077l2.372.794a3.938,3.938,0,0,1,2.528,4.031A4.343,4.343,0,0,1,343.612,477H338.5V475.05H342.9a1.5,1.5,0,0,0,1.372-1.5,1.475,1.475,0,0,0-1.006-1.445m-22.482,0-2.449-.719a3.906,3.906,0,0,1-2.588-3.671,3.859,3.859,0,0,1,3.892-3.874h4.827v1.71h-3.389a1.21,1.21,0,0,0-1.22,1.227,1.134,1.134,0,0,0,.788,1.077l2.378.794a3.968,3.968,0,0,1,2.447,4.031A4.271,4.271,0,0,1,321.217,477h-5.11V475.05H320.5a1.5,1.5,0,0,0,1.368-1.5,1.542,1.542,0,0,0-1.088-1.445m11.166,5.332c-2.95,0-5.253-2.091-5.253-4.686v-8.838h3.96v9.2a2.184,2.184,0,0,0,2.3,2.085,2.238,2.238,0,0,0,2.31-2.085v-9.2h1.869v8.838a4.939,4.939,0,0,1-5.187,4.686" transform="translate(-315.743 -450.389)" fill="#25409a"/>
    <path id="path564-2" data-name="path564" d="M986.889,250.222a94.354,94.354,0,0,1-12.637-.06,58.888,58.888,0,0,0,1.11,11.462h12.693c-.6-3.713-1.083-9.708-1.165-11.4M965.36,235.555c.847.071,8.327.726,8.83.726l11.843,12.044h15.223v-12.77Zm9.913-.743h12.783V222.428H975.273Zm-.082,3.561h0l-1.661-1.692a108.675,108.675,0,0,1-11.636-1.125v12.77c11.444,1.13,17.451,1.414,24.156,1.2h.108Zm11.64,10.605h1.553V258.9a81.561,81.561,0,0,1-.7-9.008c-.2-.2-.854-.918-.854-.918" transform="translate(-925.9 -222.428)" fill="#25409a"/>
  </g>
</svg>
