<svg xmlns="http://www.w3.org/2000/svg" width="21.601" height="16.201" viewBox="0 0 21.601 16.201"><path d="M21.095,9.225H18.569l-.7-1.755A4.7,4.7,0,0,0,13.48,4.5H8.122A4.7,4.7,0,0,0,3.734,7.47l-.7,1.755H.507a.506.506,0,0,0-.491.629l.253,1.013a.506.506,0,0,0,.491.384h.847a2.681,2.681,0,0,0-.932,2.025V15.3A2.678,2.678,0,0,0,1.35,17.07v2.281A1.35,1.35,0,0,0,2.7,20.7H4.05a1.35,1.35,0,0,0,1.35-1.35V18H16.2v1.35a1.35,1.35,0,0,0,1.35,1.35H18.9a1.35,1.35,0,0,0,1.35-1.35V17.07a2.677,2.677,0,0,0,.675-1.769V13.276A2.682,2.682,0,0,0,20,11.25h.847a.506.506,0,0,0,.491-.384l.253-1.013a.507.507,0,0,0-.492-.629ZM6.241,8.473A2.025,2.025,0,0,1,8.122,7.2H13.48a2.025,2.025,0,0,1,1.88,1.273l.841,2.1H5.4l.841-2.1ZM4.05,15.292A1.274,1.274,0,0,1,2.7,13.946,1.274,1.274,0,0,1,4.05,12.6a2.6,2.6,0,0,1,2.025,2.019C6.076,15.427,4.86,15.292,4.05,15.292Zm13.5,0c-.81,0-2.025.135-2.025-.673A2.6,2.6,0,0,1,17.551,12.6a1.274,1.274,0,0,1,1.35,1.346,1.274,1.274,0,0,1-1.35,1.346Z" transform="translate(0 -4.5)" fill="#00b3f3"/></svg>